<?xml version="1.0" standalone="no"?>
<!DOCTYPE svg PUBLIC "-//W3C//DTD SVG 20010904//EN"
 "http://www.w3.org/TR/2001/REC-SVG-20010904/DTD/svg10.dtd">
<svg version="1.0" xmlns="http://www.w3.org/2000/svg"
 width="1250.000000pt" height="703.000000pt" viewBox="0 0 1250.000000 703.000000"
 preserveAspectRatio="xMidYMid meet">
<metadata>
Created by potrace 1.16, written by Peter Selinger 2001-2019
</metadata>
<g transform="translate(0.000000,703.000000) scale(0.100000,-0.100000)"
fill="#000000" stroke="none">
<path d="M7255 5775 c-52 -51 -18 -135 54 -135 37 0 81 38 81 69 0 77 -84 118
-135 66z"/>
<path d="M7466 5615 c-75 -70 26 -178 108 -114 20 16 26 29 26 59 0 72 -80
105 -134 55z"/>
<path d="M6869 5541 c-36 -36 -38 -79 -6 -108 31 -28 53 -34 84 -22 34 13 52
37 53 71 0 40 -9 57 -41 73 -40 21 -57 19 -90 -14z"/>
<path d="M8099 5541 c-34 -35 -37 -68 -8 -105 42 -53 139 -21 139 46 0 40 -10
57 -41 73 -40 21 -57 19 -90 -14z"/>
<path d="M8521 5514 c-58 -48 -25 -134 52 -134 70 0 103 85 52 135 -31 32 -66
32 -104 -1z"/>
<path d="M10170 5518 c-42 -46 -16 -122 47 -134 27 -5 37 -1 63 24 35 36 38
69 9 106 -27 34 -88 37 -119 4z"/>
<path d="M4149 5501 c-26 -27 -30 -37 -25 -64 20 -97 156 -91 156 7 0 43 -26
74 -67 82 -27 5 -37 1 -64 -25z"/>
<path d="M9153 5520 c-45 -18 -58 -95 -23 -130 31 -31 93 -27 119 6 27 34 27
67 -1 98 -26 29 -63 39 -95 26z"/>
<path d="M9373 5520 c-43 -17 -57 -85 -27 -128 12 -17 25 -22 58 -22 49 0 72
19 82 67 11 54 -58 106 -113 83z"/>
<path d="M5391 5474 c-29 -37 -27 -79 5 -109 15 -14 35 -25 46 -25 27 0 74 26
82 45 32 85 -78 159 -133 89z"/>
<path d="M8302 5447 c-30 -32 -29 -87 1 -115 40 -37 106 -22 127 29 33 78 -71
147 -128 86z"/>
<path d="M7686 5439 c-35 -27 -36 -86 -3 -117 63 -59 160 9 127 88 -22 53 -77
66 -124 29z"/>
<path d="M5598 5420 c-25 -26 -29 -36 -24 -63 18 -96 156 -87 156 10 0 42 -38
83 -75 83 -16 0 -39 -12 -57 -30z"/>
<path d="M6643 5425 c-53 -37 -32 -129 33 -141 50 -9 88 19 92 71 6 69 -67
110 -125 70z"/>
<path d="M1859 5401 c-31 -32 -35 -50 -17 -84 17 -32 39 -46 73 -46 79 0 109
97 43 143 -34 24 -66 19 -99 -13z"/>
<path d="M8451 5370 c-6 -21 -24 -48 -39 -59 -15 -12 -33 -25 -39 -31 -9 -8
-24 -3 -52 15 -43 26 -61 52 -61 84 0 19 -6 19 -167 15 -205 -5 -249 -10 -257
-31 -4 -9 -5 -18 -2 -20 2 -2 92 1 201 7 l198 11 61 -60 62 -61 59 59 c45 45
68 61 92 63 l33 3 -39 22 -38 22 -12 -39z"/>
<path d="M8635 5383 l-26 -23 173 0 c144 0 548 -27 679 -45 31 -4 37 -1 47 20
l11 25 -77 -2 c-42 -1 -99 4 -126 10 -41 10 -53 10 -72 -3 -33 -21 -87 -19
-117 5 -32 25 -200 42 -364 38 -89 -2 -105 -6 -128 -25z"/>
<path d="M9983 5400 c-39 -16 -56 -77 -33 -120 13 -25 65 -41 94 -30 30 11 56
47 56 78 0 28 -51 82 -77 81 -10 0 -28 -4 -40 -9z"/>
<path d="M7072 5383 c-21 -8 -43 -61 -36 -88 8 -31 49 -65 80 -65 12 0 35 11
50 24 37 31 39 90 5 117 -22 18 -70 24 -99 12z"/>
<path d="M9580 5372 c-47 -14 -72 -69 -54 -117 7 -17 54 -45 78 -45 28 0 76
50 76 80 0 51 -55 96 -100 82z"/>
<path d="M7395 5349 c-88 -10 -166 -18 -172 -18 -7 -1 -13 -10 -13 -21 0 -25
-16 -25 231 1 191 20 206 23 202 40 -6 23 -30 23 -248 -2z"/>
<path d="M2075 5325 c-29 -28 -31 -54 -10 -94 24 -46 74 -55 119 -20 20 16 26
29 26 59 0 72 -84 106 -135 55z"/>
<path d="M2701 5313 c-11 -10 -24 -32 -27 -50 -5 -27 -1 -37 25 -64 27 -26 37
-30 64 -25 51 10 72 40 68 99 -3 50 -86 76 -130 40z"/>
<path d="M10814 5316 c-33 -15 -44 -33 -44 -71 0 -37 10 -55 41 -71 36 -18 73
-10 99 23 26 34 25 66 -2 97 -30 32 -56 38 -94 22z"/>
<path d="M4782 5303 c-17 -6 -42 -57 -42 -83 0 -31 44 -70 78 -70 75 0 113 94
56 139 -25 20 -63 26 -92 14z"/>
<path d="M6870 5296 c-63 -6 -122 -16 -130 -21 -8 -6 -51 -10 -95 -11 -70 0
-555 -46 -642 -60 -24 -4 -33 -10 -33 -24 0 -23 -11 -23 160 -6 74 8 137 12
139 10 3 -3 -21 -30 -52 -62 l-57 -58 59 -58 c67 -66 57 -67 136 12 l46 46
-62 62 -61 62 38 6 c22 3 66 8 99 11 33 3 168 16 300 30 132 13 255 26 273 27
26 2 32 6 32 25 0 16 -5 23 -17 21 -10 0 -70 -6 -133 -12z m-545 -178 c25 -23
45 -47 45 -53 0 -6 -20 -31 -45 -55 l-45 -44 -45 44 c-25 24 -45 48 -45 54 0
7 72 85 88 94 1 1 22 -17 47 -40z"/>
<path d="M2291 5234 c-29 -37 -27 -79 5 -109 56 -52 134 -12 134 69 0 60 -101
89 -139 40z"/>
<path d="M9790 5247 c-32 -16 -52 -59 -44 -91 22 -91 158 -75 158 19 0 60 -62
99 -114 72z"/>
<path d="M10068 5241 l-27 -17 117 -23 c176 -36 562 -143 695 -194 64 -25 117
-41 117 -37 0 5 2 15 6 23 10 27 -431 166 -751 236 -55 13 -107 24 -115 26 -8
2 -27 -4 -42 -14z"/>
<path d="M5840 5237 c-90 -46 -35 -179 60 -146 36 13 50 36 50 82 0 56 -59 90
-110 64z"/>
<path d="M7896 5208 c-70 -64 -1 -166 89 -132 24 10 46 60 39 89 -8 31 -49 65
-80 65 -12 0 -34 -10 -48 -22z"/>
<path d="M1865 5140 l-59 -60 59 -60 59 -60 58 57 c32 32 58 60 58 63 0 5
-109 120 -113 120 -2 0 -29 -27 -62 -60z m115 -15 l44 -45 -47 -47 -47 -47
-45 44 c-25 24 -45 49 -45 54 0 14 71 86 85 86 6 0 31 -20 55 -45z"/>
<path d="M5630 5169 c-41 -4 -125 -13 -186 -20 -102 -10 -111 -13 -107 -30 6
-23 2 -23 243 1 107 11 196 20 197 20 0 0 -1 9 -4 20 -6 22 -17 23 -143 9z"/>
<path d="M4168 5143 c-13 -16 -43 -45 -66 -65 l-42 -38 -210 0 -210 0 22 -22
c22 -22 27 -22 246 -19 l223 3 35 -38 35 -37 43 42 c33 32 49 41 77 41 20 0
70 3 112 6 72 7 77 8 77 30 0 20 -4 23 -27 19 -16 -2 -57 -7 -93 -10 l-66 -5
-59 60 c-33 33 -62 60 -66 60 -4 0 -18 -12 -31 -27z"/>
<path d="M5192 5137 c-32 -34 -30 -89 4 -116 37 -29 76 -27 109 6 22 23 26 34
21 63 -11 67 -89 95 -134 47z"/>
<path d="M2433 5131 c-11 -18 -8 -21 40 -30 233 -46 290 -54 617 -86 196 -19
190 -19 190 5 0 11 -2 20 -4 20 -2 0 -118 11 -257 25 -223 22 -337 39 -522 75
-26 6 -49 10 -50 10 -1 0 -8 -9 -14 -19z"/>
<path d="M4555 5095 c-53 -52 -18 -135 57 -135 l36 0 -6 45 c-3 31 0 52 11 68
15 23 14 25 -9 36 -38 17 -63 13 -89 -14z"/>
<path d="M6016 5099 c-20 -16 -26 -29 -26 -60 0 -50 27 -79 74 -79 43 0 74 26
82 67 5 27 1 37 -24 63 -36 35 -69 38 -106 9z"/>
<path d="M3325 5075 c-33 -33 -32 -70 4 -106 36 -36 73 -37 106 -4 31 30 33
82 5 113 -29 31 -83 30 -115 -3z"/>
<path d="M4682 5077 c-30 -32 -29 -81 3 -112 47 -48 120 -21 131 47 5 30 2 41
-19 62 -34 34 -85 35 -115 3z"/>
<path d="M10389 5057 c-44 -34 -47 -89 -7 -127 49 -45 128 -8 128 60 0 30 -6
43 -26 59 -30 23 -71 27 -95 8z"/>
<path d="M6441 5014 c-28 -36 -27 -79 4 -109 72 -73 178 28 114 109 -16 20
-29 26 -59 26 -30 0 -43 -6 -59 -26z"/>
<path d="M11011 5014 c-46 -58 -13 -129 59 -129 48 0 79 31 80 78 0 69 -97
104 -139 51z"/>
<path d="M11201 5014 c-35 -44 -21 -103 29 -124 56 -23 110 14 110 75 0 70
-96 103 -139 49z"/>
<path d="M3536 5005 c-17 -16 -26 -34 -26 -55 0 -38 42 -80 80 -80 74 0 110
95 54 139 -35 28 -75 26 -108 -4z"/>
<path d="M3960 4957 c-32 -16 -52 -59 -44 -91 22 -91 158 -75 158 19 0 60 -62
99 -114 72z"/>
<path d="M2502 4915 c-80 -34 -54 -149 33 -149 89 0 112 117 30 150 -24 10
-37 9 -63 -1z"/>
<path d="M6236 4859 c-20 -16 -26 -29 -26 -58 0 -100 137 -113 156 -14 5 27 1
37 -24 63 -36 35 -69 38 -106 9z"/>
<path d="M2905 4825 c-27 -26 -31 -54 -13 -88 26 -50 77 -61 122 -26 20 16 26
29 26 59 0 72 -84 106 -135 55z"/>
<path d="M10600 4825 c-33 -35 -31 -81 4 -112 38 -33 78 -30 110 8 29 34 32
50 14 82 -28 53 -89 63 -128 22z"/>
<path d="M3726 4809 c-54 -42 -21 -139 48 -139 39 0 61 15 76 50 32 77 -57
141 -124 89z"/>
<path d="M2291 4473 c-11 -10 -24 -32 -27 -50 -5 -27 -1 -37 24 -63 37 -37 74
-39 107 -5 70 69 -29 180 -104 118z"/>
<path d="M3720 4370 c-23 -23 -26 -76 -6 -102 23 -31 63 -40 97 -22 50 25 60
83 21 127 -21 24 -86 23 -112 -3z"/>
<path d="M3970 4368 c-82 -30 -57 -148 32 -148 44 0 72 29 72 75 0 58 -50 93
-104 73z"/>
<path d="M1885 4339 c-31 -18 -45 -40 -45 -74 0 -55 59 -90 115 -69 23 9 46
60 39 88 -12 47 -70 76 -109 55z"/>
<path d="M5414 4306 c-75 -33 -51 -146 30 -146 70 0 109 74 64 123 -30 33 -56
39 -94 23z"/>
<path d="M2492 4264 c-58 -40 -42 -127 25 -140 51 -10 87 20 91 73 3 34 -1 44
-24 62 -32 25 -61 27 -92 5z"/>
<path d="M2012 4236 c-13 -36 -86 -93 -97 -76 -3 6 -13 10 -22 10 -11 0 -9 -5
8 -19 l24 -19 48 40 48 41 117 -22 c114 -20 259 -41 288 -41 15 0 19 25 6 34
-5 3 -51 10 -103 16 -117 15 -278 47 -294 60 -8 6 -15 -1 -23 -24z"/>
<path d="M5020 4212 c-8 -3 -25 -14 -37 -25 -50 -45 -12 -127 57 -127 68 0
102 69 60 122 -20 26 -53 38 -80 30z"/>
<path d="M5628 4186 c-44 -33 -42 -98 4 -130 52 -36 118 2 118 68 0 59 -75 98
-122 62z"/>
<path d="M2620 4149 c-14 -25 -14 -25 28 -27 20 -2 170 -23 332 -46 162 -24
363 -49 445 -55 83 -7 175 -14 205 -17 30 -3 161 -11 291 -19 158 -9 244 -18
258 -27 17 -10 25 -10 41 0 14 8 42 11 83 7 34 -2 101 -7 150 -10 82 -4 87 -4
78 14 -11 20 -72 31 -177 31 -33 0 -64 3 -67 7 -4 3 2 16 13 28 l20 21 -60 59
-60 59 -60 -59 c-60 -59 -60 -59 -40 -80 l19 -21 -72 4 c-93 4 -472 29 -647
43 -104 8 -523 66 -748 103 -14 2 -26 -3 -32 -15z m1632 -46 l48 -47 -22 -23
c-28 -30 -114 -33 -146 -4 -12 10 -22 22 -22 27 0 9 81 94 89 94 3 0 27 -21
53 -47z"/>
<path d="M2060 4108 c-39 -42 -15 -126 38 -129 62 -4 96 23 96 77 0 67 -88
101 -134 52z"/>
<path d="M4771 4094 c-12 -15 -21 -35 -21 -46 0 -28 19 -60 32 -52 7 4 8 3 4
-4 -9 -15 37 -34 61 -25 34 12 63 46 63 75 0 70 -97 106 -139 52z"/>
<path d="M4593 4089 c-27 -10 -53 -47 -53 -75 0 -12 9 -33 21 -48 16 -20 29
-26 59 -26 68 0 102 69 60 122 -22 28 -56 39 -87 27z"/>
<path d="M2687 4078 c-71 -54 -8 -171 74 -138 79 33 59 150 -26 150 -17 0 -39
-6 -48 -12z"/>
<path d="M6025 4035 c-40 -40 -32 -96 17 -121 31 -16 84 -11 73 6 -3 5 1 7 9
4 18 -7 36 24 36 61 0 36 -42 75 -80 75 -19 0 -40 -9 -55 -25z"/>
<path d="M8323 4030 c-12 -5 -27 -18 -33 -30 -15 -28 -9 -86 8 -82 8 1 11 -2
6 -9 -15 -25 58 -40 96 -19 25 13 41 65 30 94 -10 27 -47 56 -70 55 -8 0 -25
-4 -37 -9z"/>
<path d="M3295 3985 c-33 -33 -33 -78 1 -112 51 -51 142 -5 130 67 -11 68 -84
93 -131 45z"/>
<path d="M2902 3967 c-22 -23 -28 -60 -16 -92 7 -18 55 -45 79 -45 26 0 75 55
75 85 0 65 -93 100 -138 52z"/>
<path d="M9555 3965 c-24 -24 -31 -57 -19 -90 7 -18 55 -45 79 -45 26 0 75 55
75 85 0 36 -41 75 -80 75 -19 0 -40 -9 -55 -25z"/>
<path d="M3542 3973 c-21 -8 -43 -61 -36 -87 15 -60 98 -82 135 -37 26 32 25
85 -3 111 -21 19 -66 25 -96 13z"/>
<path d="M4698 3956 c-16 -22 -16 -23 0 -22 18 0 373 -22 434 -28 21 -2 45 2
55 10 10 7 27 14 37 14 11 0 17 2 15 4 -2 2 -80 9 -172 15 -124 8 -178 8 -206
0 -32 -9 -44 -8 -84 10 -57 26 -58 26 -79 -3z"/>
<path d="M6240 3935 c-25 -26 -42 -35 -65 -34 -16 1 -45 -5 -62 -12 -28 -11
-38 -11 -65 0 -18 7 -57 17 -86 20 l-53 7 23 -22 c20 -21 34 -23 118 -25 69
-1 100 -5 112 -16 16 -14 18 -13 27 9 5 14 22 35 38 47 15 11 34 26 41 32 9 8
17 7 29 -2 8 -7 25 -18 37 -24 11 -5 28 -24 36 -40 l14 -30 114 1 c95 1 116 4
124 17 7 14 4 17 -17 18 -14 1 -29 3 -35 4 -5 1 -50 3 -99 4 -88 1 -90 1 -140
41 -28 22 -52 40 -54 40 -2 0 -18 -16 -37 -35z"/>
<path d="M5273 3931 c16 -5 34 -15 42 -21 7 -6 105 -15 239 -21 216 -10 228
-9 251 9 27 21 72 17 -435 37 -84 3 -116 2 -97 -4z"/>
<path d="M4133 3904 c-21 -21 -24 -32 -19 -62 11 -68 84 -95 131 -47 16 15 25
36 25 55 0 71 -86 105 -137 54z"/>
<path d="M5190 3888 c-38 -41 -13 -126 38 -129 62 -4 96 23 96 77 0 67 -88
101 -134 52z"/>
<path d="M6236 3888 c-56 -51 -26 -138 47 -138 47 0 77 31 77 80 0 69 -73 103
-124 58z"/>
<path d="M5817 3888 c-43 -33 -40 -100 5 -132 52 -36 118 2 118 68 0 59 -77
98 -123 64z"/>
<path d="M6673 3880 c-47 -19 -58 -92 -20 -128 46 -44 121 -19 133 44 11 56
-58 107 -113 84z"/>
<path d="M6796 3852 c5 -18 17 -20 112 -27 59 -3 188 -13 287 -21 240 -19 245
-18 245 5 0 17 -10 20 -82 25 -235 15 -373 24 -465 31 -99 7 -102 7 -97 -13z"/>
<path d="M7485 3845 c-35 -34 -34 -86 1 -114 47 -37 103 -22 123 32 30 78 -66
141 -124 82z"/>
<path d="M7706 3849 c-56 -44 -20 -139 54 -139 66 0 97 93 45 138 -33 28 -65
28 -99 1z"/>
<path d="M8521 3824 c-65 -83 46 -176 117 -98 28 31 28 64 1 98 -16 20 -29 26
-59 26 -30 0 -43 -6 -59 -26z"/>
<path d="M8093 3785 c-44 -31 -37 -111 13 -134 38 -17 63 -13 89 14 68 67 -23
175 -102 120z"/>
<path d="M8726 3765 c-67 -62 2 -162 89 -129 24 10 46 60 39 89 -8 31 -49 65
-79 65 -12 0 -34 -11 -49 -25z"/>
<path d="M9346 3765 c-30 -32 -33 -65 -10 -100 30 -46 106 -41 133 8 26 48 -4
104 -61 113 -31 6 -40 2 -62 -21z"/>
<path d="M6874 3760 c-28 -11 -54 -48 -54 -76 0 -12 9 -33 21 -48 16 -20 29
-26 59 -26 69 0 103 73 58 124 -27 29 -55 38 -84 26z"/>
<path d="M7293 3750 c-27 -11 -43 -40 -43 -79 0 -56 86 -94 124 -55 43 42 42
90 -1 124 -28 22 -46 24 -80 10z"/>
<path d="M8944 3738 c-48 -26 -60 -92 -24 -128 40 -40 128 -15 131 38 2 33 -3
57 -15 70 -19 20 -70 31 -92 20z"/>
<path d="M7881 3664 c-35 -45 -26 -95 20 -119 40 -21 57 -19 90 14 34 35 37
68 8 105 -16 20 -29 26 -59 26 -30 0 -43 -6 -59 -26z"/>
<path d="M9144 3668 c-47 -22 -56 -86 -19 -123 34 -35 86 -34 114 1 36 45 20
105 -32 124 -35 12 -36 12 -63 -2z"/>
<path d="M9275 3628 c4 -13 8 -23 9 -24 0 0 87 -13 191 -28 105 -15 200 -30
212 -33 14 -3 25 2 32 15 10 18 3 20 -127 40 -80 13 -155 19 -179 15 -29 -4
-50 -1 -65 9 -13 8 -36 18 -51 22 -26 6 -28 5 -22 -16z"/>
<path d="M9993 3620 c-47 -19 -58 -92 -20 -128 40 -37 98 -28 123 19 34 66
-34 138 -103 109z"/>
<path d="M9755 3565 c-43 -43 -26 -115 31 -129 53 -14 104 28 104 85 0 31 -44
69 -80 69 -19 0 -40 -9 -55 -25z"/>
<path d="M6425 3545 c-41 -40 -30 -96 22 -124 46 -24 113 21 113 76 0 34 -42
73 -80 73 -19 0 -40 -9 -55 -25z"/>
<path d="M7062 3547 c-39 -41 -26 -105 26 -126 57 -24 120 28 107 89 -13 59
-92 81 -133 37z"/>
<path d="M10185 3535 c-51 -50 -18 -135 52 -135 76 0 105 100 41 144 -32 23
-65 20 -93 -9z"/>
<path d="M10351 3424 c-29 -37 -26 -70 8 -105 32 -31 50 -35 84 -17 52 27 62
83 22 123 -34 35 -86 34 -114 -1z"/>
<path d="M10595 3415 c-32 -31 -32 -74 0 -109 32 -34 77 -35 110 -1 50 49 15
135 -55 135 -19 0 -40 -9 -55 -25z"/>
<path d="M10790 3331 c-35 -35 -33 -74 6 -108 74 -66 172 40 104 112 -32 34
-74 33 -110 -4z"/>
<path d="M6294 1369 l-61 -61 59 -61 59 -61 62 62 62 62 -60 60 -60 60 -61
-61z m109 -17 l47 -48 -43 -42 c-23 -23 -47 -42 -53 -42 -5 0 -30 20 -54 45
l-44 45 44 44 c25 25 47 45 50 45 3 1 27 -21 53 -47z"/>
<path d="M6599 1368 l-56 -58 59 -61 59 -61 62 61 61 60 -60 60 c-32 33 -61
60 -64 59 -3 0 -30 -27 -61 -60z m115 -14 l43 -46 -49 -46 -49 -46 -47 47 -46
47 44 45 c24 25 48 45 53 45 5 0 28 -21 51 -46z"/>
<path d="M4835 1365 c-50 -49 -15 -135 55 -135 41 0 80 39 80 80 0 41 -39 80
-80 80 -19 0 -40 -9 -55 -25z"/>
<path d="M5079 1377 c-65 -50 -34 -147 46 -147 36 0 75 42 75 80 0 60 -76 102
-121 67z"/>
</g>
</svg>
